<svg width="396" height="396" viewBox="0 0 396 396" fill="none" xmlns="http://www.w3.org/2000/svg">
<g filter="url(#filter0_bd_49_3625)">
<circle cx="197.681" cy="194.002" r="77.5" transform="rotate(-20.184 197.681 194.002)" fill="white" fill-opacity="0.28" shape-rendering="crispEdges"/>
</g>
<path d="M155.409 242.984L156.923 241.288L154.646 239.254L155.607 238.179L157.884 240.212L159.485 238.42L156.917 236.126L157.903 235.022L161.828 238.526L155.779 245.3L151.854 241.795L152.841 240.691L155.409 242.984Z" fill="white"/>
<path d="M151.777 227.804L150.54 231.216L154.047 230.778L155.293 232.41L149.923 232.913L148.108 237.943L146.838 236.28L148.065 232.876L144.576 233.316L143.331 231.685L148.682 231.18L150.508 226.141L151.777 227.804Z" fill="white"/>
<path d="M139.873 219.363C140.31 219.152 140.77 219.06 141.254 219.086C141.734 219.105 142.198 219.28 142.647 219.612C143.091 219.936 143.475 220.433 143.799 221.104L144.459 222.473L147.595 220.961L148.386 222.599L140.217 226.538L138.767 223.531C138.462 222.899 138.312 222.308 138.316 221.758C138.32 221.208 138.46 220.731 138.737 220.329C139.011 219.918 139.389 219.596 139.873 219.363ZM142.511 221.812C142.292 221.36 142.029 221.073 141.721 220.952C141.405 220.836 141.06 220.867 140.685 221.048C139.89 221.432 139.706 222.068 140.135 222.958L140.761 224.257L143.137 223.111L142.511 221.812Z" fill="white"/>
<path d="M142.266 211.414L141.451 208.539L142.839 208.146L144.15 212.77L135.425 215.244L134.929 213.494L142.266 211.414Z" fill="white"/>
<path d="M141.774 200.455C141.848 201.301 141.716 202.095 141.381 202.837C141.045 203.579 140.546 204.187 139.883 204.662C139.211 205.137 138.431 205.413 137.542 205.49C136.662 205.566 135.854 205.428 135.119 205.074C134.376 204.721 133.775 204.208 133.317 203.535C132.859 202.862 132.593 202.102 132.52 201.256C132.446 200.402 132.577 199.608 132.914 198.875C133.249 198.133 133.753 197.529 134.426 197.062C135.089 196.587 135.861 196.312 136.741 196.236C137.629 196.159 138.446 196.297 139.189 196.65C139.923 196.995 140.519 197.504 140.977 198.177C141.436 198.85 141.701 199.61 141.774 200.455ZM140.156 200.595C140.109 200.052 139.947 199.583 139.67 199.19C139.384 198.798 139.002 198.505 138.524 198.311C138.047 198.118 137.506 198.047 136.902 198.1C136.298 198.152 135.782 198.314 135.353 198.586C134.916 198.858 134.595 199.212 134.389 199.647C134.183 200.082 134.104 200.572 134.151 201.115C134.198 201.659 134.36 202.132 134.639 202.534C134.916 202.927 135.294 203.22 135.771 203.414C136.24 203.608 136.776 203.679 137.38 203.626C137.984 203.574 138.505 203.412 138.942 203.139C139.379 202.867 139.705 202.512 139.92 202.076C140.125 201.633 140.204 201.139 140.156 200.595Z" fill="white"/>
<path d="M142.073 187.462L138.318 189.008L138.211 189.859L141.718 190.298L141.492 192.103L132.494 190.975L132.917 187.598C133.004 186.902 133.203 186.324 133.514 185.866C133.816 185.406 134.192 185.082 134.644 184.894C135.088 184.697 135.567 184.631 136.083 184.695C136.676 184.769 137.191 185.009 137.63 185.413C138.059 185.816 138.322 186.368 138.417 187.07L142.335 185.374L142.073 187.462ZM136.858 189.689L137.047 188.181C137.108 187.691 137.038 187.311 136.836 187.042C136.626 186.771 136.31 186.609 135.889 186.556C135.476 186.505 135.143 186.585 134.89 186.798C134.627 187.009 134.466 187.36 134.404 187.85L134.215 189.358L136.858 189.689Z" fill="white"/>
<path d="M136.554 177.522L138.722 178.207L139.642 175.296L141.017 175.731L140.097 178.642L142.388 179.367L143.426 176.084L144.838 176.53L143.252 181.547L134.593 178.81L136.179 173.793L137.592 174.239L136.554 177.522Z" fill="white"/>
<path d="M150.606 162.22L148.562 165.197L149.648 166.668L148.567 168.243L142.926 160.414L144.125 158.668L153.457 161.12L152.369 162.705L150.606 162.22ZM149.127 161.803L145.257 160.738L147.642 163.967L149.127 161.803Z" fill="white"/>
<path d="M161.777 152.778L160.446 154.017L153.191 152.269L157.432 156.824L156.101 158.063L149.912 151.416L151.244 150.177L158.507 151.935L154.258 147.371L155.589 146.131L161.777 152.778Z" fill="white"/>
<path d="M163.409 140.722C164.231 140.24 165.046 139.978 165.855 139.936C166.671 139.889 167.422 140.066 168.109 140.467C168.798 140.856 169.373 141.443 169.833 142.227C170.293 143.012 170.524 143.8 170.526 144.592C170.532 145.372 170.315 146.106 169.875 146.795C169.444 147.48 168.817 148.064 167.995 148.545L165.26 150.148L160.674 142.325L163.409 140.722ZM167.157 147.244C167.979 146.763 168.483 146.166 168.668 145.455C168.854 144.744 168.708 143.981 168.23 143.167C167.753 142.352 167.156 141.848 166.441 141.655C165.721 141.455 164.95 141.596 164.128 142.077L163.018 142.728L166.047 147.895L167.157 147.244Z" fill="white"/>
<path d="M248.336 221.51C247.788 222.29 247.155 222.866 246.437 223.24C245.714 223.621 244.957 223.772 244.166 223.693C243.377 223.625 242.61 223.33 241.866 222.807C241.122 222.284 240.585 221.663 240.254 220.943C239.926 220.236 239.818 219.478 239.932 218.668C240.04 217.866 240.369 217.075 240.917 216.296L242.739 213.702L250.158 218.917L248.336 221.51ZM242.219 217.131C241.671 217.911 241.46 218.663 241.586 219.387C241.713 220.111 242.162 220.744 242.935 221.287C243.707 221.83 244.459 222.041 245.19 221.919C245.928 221.803 246.571 221.355 247.119 220.575L247.858 219.523L242.958 216.079L242.219 217.131Z" fill="white"/>
<path d="M181.239 134.856L181.768 137.067L184.737 136.357L185.073 137.759L182.104 138.47L182.663 140.807L186.011 140.006L186.356 141.447L181.238 142.671L179.126 133.838L184.243 132.615L184.588 134.055L181.239 134.856Z" fill="white"/>
<path d="M198.102 140.445L196.284 140.519L191.917 134.468L192.169 140.686L190.352 140.76L189.984 131.686L191.801 131.613L196.169 137.676L195.916 131.445L197.733 131.372L198.102 140.445Z" fill="white"/>
<path d="M210.005 132.823L209.769 134.272L207.384 133.882L206.158 141.383L204.363 141.089L205.589 133.589L203.204 133.199L203.441 131.75L210.005 132.823Z" fill="white"/>
<path d="M216.726 136.263L215.969 138.407L218.849 139.423L218.369 140.783L215.49 139.767L214.69 142.034L217.936 143.179L217.443 144.576L212.482 142.825L215.504 134.261L220.466 136.012L219.973 137.409L216.726 136.263Z" fill="white"/>
<path d="M225.208 148.539L225.231 144.478L224.487 144.051L222.729 147.117L221.151 146.212L225.663 138.346L228.616 140.039C229.224 140.388 229.68 140.794 229.984 141.258C230.291 141.714 230.445 142.186 230.444 142.675C230.455 143.161 230.331 143.629 230.073 144.08C229.775 144.598 229.356 144.982 228.814 145.23C228.276 145.471 227.665 145.5 226.981 145.317L227.034 149.586L225.208 148.539ZM225.166 142.868L226.485 143.624C226.913 143.87 227.29 143.952 227.617 143.869C227.948 143.78 228.219 143.551 228.43 143.183C228.637 142.822 228.691 142.484 228.593 142.168C228.499 141.844 228.238 141.56 227.81 141.314L226.491 140.558L225.166 142.868Z" fill="white"/>
<path d="M245.307 153.753L244.242 154.763L242.579 153.009L237.064 158.239L235.812 156.919L241.328 151.69L239.665 149.936L240.73 148.926L245.307 153.753Z" fill="white"/>
<path d="M238.975 234.378L237.942 233.485L239.411 231.785L234.065 227.163L235.171 225.884L240.517 230.505L241.987 228.805L243.02 229.698L238.975 234.378Z" fill="white"/>
<path d="M235.766 223.138L236.797 224.033L235.324 225.729L240.66 230.363L239.551 231.64L234.215 227.006L232.741 228.703L231.711 227.808L235.766 223.138Z" fill="white"/>
<path d="M252.966 164.765L245.265 169.553L244.304 168.008L247.581 165.971L245.53 162.672L242.253 164.709L241.293 163.164L248.994 158.376L249.955 159.921L246.788 161.89L248.839 165.189L252.006 163.22L252.966 164.765Z" fill="white"/>
<path d="M254.973 172.719L252.847 173.524L253.929 176.379L252.58 176.89L251.499 174.035L249.251 174.886L250.47 178.106L249.085 178.63L247.222 173.71L255.714 170.493L257.578 175.414L256.193 175.938L254.973 172.719Z" fill="white"/>
<path d="M250.226 197.083L250.93 193.54L249.352 192.617L249.724 190.744L257.995 195.713L257.583 197.79L248.04 199.218L248.415 197.332L250.226 197.083ZM251.749 196.882L255.726 196.335L252.261 194.308L251.749 196.882Z" fill="white"/>
<path d="M247.082 208.439L248.409 205.079L247.021 203.889L247.723 202.113L254.971 208.482L254.193 210.451L244.549 210.148L245.255 208.36L247.082 208.439ZM248.617 208.514L252.627 208.687L249.581 206.073L248.617 208.514Z" fill="white"/>
<g clip-path="url(#clip0_49_3625)">
<path d="M195.908 187.728C195.659 187.819 195.456 188.006 195.345 188.247C195.234 188.487 195.223 188.762 195.314 189.011L196.694 192.766C196.786 193.015 196.972 193.217 197.213 193.328C197.454 193.44 197.729 193.451 197.978 193.359C198.227 193.268 198.429 193.081 198.54 192.84C198.652 192.6 198.663 192.325 198.571 192.076L197.191 188.321C197.1 188.072 196.913 187.87 196.672 187.759C196.432 187.647 196.157 187.636 195.908 187.728Z" fill="white"/>
<path fill-rule="evenodd" clip-rule="evenodd" d="M189.434 193.304C188.702 191.313 188.791 189.112 189.682 187.186C190.572 185.26 192.191 183.767 194.183 183.035C196.174 182.303 198.375 182.392 200.301 183.283C202.227 184.173 203.72 185.792 204.452 187.784L207.212 195.292C207.944 197.284 207.855 199.484 206.965 201.41C206.074 203.336 204.455 204.829 202.464 205.561C200.472 206.293 198.272 206.204 196.346 205.314C194.42 204.423 192.927 202.804 192.195 200.813L189.434 193.304ZM202.575 188.474L205.335 195.982C205.884 197.476 205.817 199.126 205.149 200.571C204.481 202.015 203.267 203.135 201.774 203.684C200.28 204.233 198.63 204.166 197.185 203.499C195.741 202.831 194.621 201.616 194.072 200.123L191.312 192.614C190.762 191.12 190.829 189.47 191.497 188.026C192.165 186.581 193.379 185.461 194.873 184.912C196.366 184.363 198.017 184.43 199.461 185.098C200.906 185.766 202.026 186.98 202.575 188.474Z" fill="white"/>
</g>
<defs>
<filter id="filter0_bd_49_3625" x="0.1604" y="0.480469" width="395.042" height="395.042" filterUnits="userSpaceOnUse" color-interpolation-filters="sRGB">
<feFlood flood-opacity="0" result="BackgroundImageFix"/>
<feGaussianBlur in="BackgroundImageFix" stdDeviation="24"/>
<feComposite in2="SourceAlpha" operator="in" result="effect1_backgroundBlur_49_3625"/>
<feColorMatrix in="SourceAlpha" type="matrix" values="0 0 0 0 0 0 0 0 0 0 0 0 0 0 0 0 0 0 127 0" result="hardAlpha"/>
<feOffset dy="4"/>
<feGaussianBlur stdDeviation="60"/>
<feComposite in2="hardAlpha" operator="out"/>
<feColorMatrix type="matrix" values="0 0 0 0 0 0 0 0 0 0 0 0 0 0 0 0 0 0 0.25 0"/>
<feBlend mode="normal" in2="effect1_backgroundBlur_49_3625" result="effect2_dropShadow_49_3625"/>
<feBlend mode="normal" in="SourceGraphic" in2="effect2_dropShadow_49_3625" result="shape"/>
</filter>
<clipPath id="clip0_49_3625">
<rect width="24" height="24" fill="white" transform="translate(182.92 187.175) rotate(-20.184)"/>
</clipPath>
</defs>
</svg>
