<svg width="66" height="66" viewBox="0 0 66 66" fill="none" xmlns="http://www.w3.org/2000/svg">
<path d="M30.0363 18.9932C29.3858 18.9108 28.7547 19.3136 28.5699 19.9636C28.3659 20.6808 28.7819 21.4275 29.499 21.6314L29.4991 21.6314L42.4301 25.3107L42.7794 25.4101L42.4617 25.5862L19.4036 38.3662L19.2408 38.4713C18.7111 38.8695 18.5425 39.6077 18.873 40.2038C19.2344 40.8559 20.0561 41.0915 20.7082 40.7301L43.7672 27.9496L44.0848 27.7736L43.9841 28.1224L40.2559 41.0294L40.2123 41.236C40.1271 41.8861 40.5273 42.5188 41.1765 42.7065C41.8928 42.9134 42.6412 42.5006 42.8482 41.7843L47.5892 25.379L47.5918 25.37L47.5925 25.3682C47.6077 25.3139 47.6195 25.2585 47.6278 25.2026C47.6279 25.2024 47.6279 25.2021 47.6279 25.2019L47.6306 25.1825C47.634 25.1575 47.6366 25.1327 47.6384 25.1096L47.6384 25.1094C47.641 25.0764 47.6424 25.043 47.6426 25.0084C47.6427 24.9873 47.6423 24.9665 47.6414 24.9474L47.6413 24.9467C47.6396 24.9047 47.6358 24.8626 47.6299 24.8193C47.6269 24.7977 47.6234 24.7765 47.6198 24.7573L47.6197 24.7568C47.6122 24.7171 47.603 24.6775 47.5916 24.637C47.586 24.6175 47.5802 24.5986 47.5741 24.5807L47.5739 24.5799C47.5613 24.5422 47.547 24.5047 47.5308 24.4677L47.4714 24.3476L30.0363 18.9932ZM30.0363 18.9932L30.243 19.0359L46.6616 23.7057C46.7556 23.7324 46.8443 23.7684 46.927 23.8123C46.9533 23.8273 46.9781 23.8416 47.0021 23.8564L47.0021 23.8565L47.0061 23.8588C47.0247 23.8695 47.0438 23.8819 47.0639 23.8959C47.0942 23.9179 47.1238 23.9404 47.152 23.9637L47.1541 23.9654C47.175 23.982 47.1945 23.9992 47.2142 24.0176C47.2391 24.0415 47.2644 24.0671 47.2883 24.0933L47.2898 24.0949C47.3059 24.112 47.3208 24.1292 47.3357 24.1474C47.3584 24.1756 47.3806 24.2051 47.4014 24.2353L47.4026 24.2369C47.4179 24.2584 47.4324 24.2807 47.4465 24.304L30.0363 18.9932Z" fill="#F5F5F5" stroke="#F1F5F8" stroke-width="0.3"/>
</svg>
